<?xml version="1.0" encoding="utf-8"?>
<!-- Generator: Adobe Illustrator 17.0.0, SVG Export Plug-In . SVG Version: 6.00 Build 0)  -->
<!DOCTYPE svg PUBLIC "-//W3C//DTD SVG 1.1//EN" "http://www.w3.org/Graphics/SVG/1.1/DTD/svg11.dtd">
<svg version="1.1" id="Layer_1" xmlns="http://www.w3.org/2000/svg" xmlns:xlink="http://www.w3.org/1999/xlink" x="0px" y="0px"
	 width="279.333px" height="27.333px" viewBox="0 0 279.333 27.333" enable-background="new 0 0 279.333 27.333"
	 xml:space="preserve">
<g>
	<g>
		<g>
			<polygon fill="#333333" points="46.77,3.022 40.794,12.229 40.875,13.004 46.77,3.956 59.209,22.925 50.667,22.702 
				50.667,23.115 60.145,23.433 			"/>
			<g>
				<polygon fill="#333333" points="29.062,22.857 22.634,22.925 34.827,3.896 40.667,13.004 40.667,12.091 34.827,2.971 
					21.647,23.433 28.972,23.211 				"/>
			</g>
		</g>
		<polygon fill="#333333" points="12.085,22.667 21.788,7.715 26.879,15.558 27.204,15.121 21.788,6.782 11.478,22.669 		"/>
		<polygon fill="#333333" points="53.756,13.896 57.912,7.538 67.7,22.671 67.95,22.798 68.419,22.845 57.912,6.605 53.502,13.375 
					"/>
	</g>
	<g>
		<path fill="#333333" d="M86.978,10.458c-0.546-0.546-1.32-0.862-2.217-0.862c-1.795,0-3.097,1.302-3.097,3.097
			s1.302,3.097,3.097,3.097c0.898,0,1.672-0.317,2.217-0.88l2.464,2.428c-1.197,1.197-2.851,1.953-4.681,1.953
			c-3.643,0-6.599-2.956-6.599-6.599s2.957-6.599,6.599-6.599c1.813,0,3.449,0.721,4.646,1.918L86.978,10.458z"/>
		<path fill="#333333" d="M98.134,6.094c3.643,0,6.599,2.974,6.599,6.617s-2.957,6.582-6.599,6.582
			c-3.643,0-6.582-2.939-6.582-6.582S94.491,6.094,98.134,6.094z M98.134,9.543c-1.724,0-3.132,1.408-3.132,3.15
			c0,1.724,1.408,3.15,3.132,3.15c1.742,0,3.15-1.426,3.15-3.15C101.284,10.951,99.876,9.543,98.134,9.543z"/>
		<path fill="#333333" d="M107.142,19.292V6.094h5.825c2.111,0,3.906,1.813,3.906,3.924c0,0.898-0.334,1.725-0.845,2.376
			c0.897,0.721,1.496,1.83,1.496,3.027c0,2.094-1.777,3.872-3.871,3.872L107.142,19.292L107.142,19.292z M112.281,11.25
			c0.634,0,1.144-0.51,1.144-1.144s-0.511-1.144-1.144-1.144h-1.671v2.288H112.281z M112.932,16.442c0.634,0,1.144-0.51,1.144-1.144
			s-0.545-1.144-1.144-1.144h-2.323v2.288H112.932z"/>
		<path fill="#333333" d="M119.6,19.292V6.094h5.825c2.111,0,3.906,1.813,3.906,3.924c0,0.898-0.334,1.725-0.845,2.376
			c0.898,0.721,1.496,1.83,1.496,3.027c0,2.094-1.777,3.872-3.871,3.872L119.6,19.292L119.6,19.292z M124.739,11.25
			c0.633,0,1.144-0.51,1.144-1.144s-0.511-1.144-1.144-1.144h-1.672v2.288H124.739z M125.39,16.442c0.634,0,1.144-0.51,1.144-1.144
			s-0.545-1.144-1.144-1.144h-2.323v2.288H125.39z"/>
		<path fill="#333333" d="M132.058,6.094h3.467v9.714h4.751v3.484h-8.218V6.094z"/>
		<path fill="#333333" d="M142.757,6.094h8.201v2.868h-4.734v2.147h4.188v2.921h-4.188v2.428h4.734v2.833h-8.201V6.094z"/>
		<path fill="#333333" d="M158.295,10.142c0-0.546-0.458-1.003-1.003-1.003s-0.986,0.458-0.986,1.003s0.44,0.985,0.986,0.985
			c1.285,0,2.446,0.616,3.185,1.566c0.563,0.704,0.88,1.584,0.88,2.552c0,2.253-1.813,4.048-4.065,4.048s-4.065-1.777-4.065-4.1
			h3.079c0,0.563,0.44,1.003,0.986,1.003s1.003-0.44,1.003-0.985c0-0.546-0.458-1.003-1.003-1.003c-2.253,0-4.048-1.795-4.048-4.048
			s1.795-4.065,4.048-4.065s4.065,1.795,4.065,4.048L158.295,10.142L158.295,10.142z"/>
		<path fill="#333333" stroke="#333333" stroke-miterlimit="10" d="M164.973,12.923h2.6v0.119h-2.6V12.923z"/>
		<path fill="#333333" stroke="#333333" stroke-miterlimit="10" d="M184.556,12.923h2.6v0.119h-2.6V12.923z"/>
		<path fill="#333333" d="M203.435,6.094l-6.018,6.036l7.145,7.162h-4.892l-4.699-4.681l-0.827,0.845v3.836h-3.467V6.094h3.467
			v4.452l4.435-4.452C198.579,6.094,203.435,6.094,203.435,6.094z"/>
		<path fill="#333333" d="M206.14,6.094h8.201v2.868h-4.734v2.147h4.188v2.921h-4.188v2.428h4.734v2.833h-8.201V6.094z"/>
		<path fill="#333333" d="M216.821,19.292V6.094h5.825c2.111,0,3.906,1.813,3.906,3.924c0,0.898-0.334,1.725-0.845,2.376
			c0.898,0.721,1.496,1.83,1.496,3.027c0,2.094-1.777,3.872-3.871,3.872L216.821,19.292L216.821,19.292z M221.96,11.25
			c0.633,0,1.144-0.51,1.144-1.144s-0.511-1.144-1.144-1.144h-1.672v2.288H221.96z M222.611,16.442c0.634,0,1.144-0.51,1.144-1.144
			s-0.545-1.144-1.144-1.144h-2.323v2.288H222.611z"/>
		<path fill="#333333" d="M228.4,19.292l6.159-13.198h1.566l6.212,13.198h-3.467l-0.809-1.725h-5.403l-0.792,1.725H228.4z
			 M234.013,14.647h2.693l-1.337-2.904L234.013,14.647z"/>
		<path fill="#333333" d="M244.095,19.292V6.094h5.825c2.111,0,3.906,1.813,3.906,3.924c0,0.898-0.334,1.725-0.845,2.376
			c0.897,0.721,1.496,1.83,1.496,3.027c0,2.094-1.777,3.872-3.871,3.872L244.095,19.292L244.095,19.292z M249.234,11.25
			c0.634,0,1.144-0.51,1.144-1.144s-0.51-1.144-1.144-1.144h-1.671v2.288H249.234z M249.885,16.442c0.634,0,1.144-0.51,1.144-1.144
			s-0.545-1.144-1.144-1.144h-2.323v2.288H249.885z"/>
		<path fill="#333333" d="M261.41,10.142c0-0.546-0.458-1.003-1.003-1.003c-0.546,0-0.986,0.458-0.986,1.003s0.44,0.985,0.986,0.985
			c1.285,0,2.446,0.616,3.185,1.566c0.563,0.704,0.88,1.584,0.88,2.552c0,2.253-1.813,4.048-4.065,4.048
			c-2.253,0-4.065-1.777-4.065-4.1h3.079c0,0.563,0.44,1.003,0.986,1.003s1.003-0.44,1.003-0.985c0-0.546-0.458-1.003-1.003-1.003
			c-2.253,0-4.048-1.795-4.048-4.048s1.795-4.065,4.048-4.065s4.065,1.795,4.065,4.048L261.41,10.142L261.41,10.142z"/>
	</g>
	<g>
		<polygon fill="none" stroke="#333333" stroke-miterlimit="10" points="274.167,23.5 3.167,23.5 3.167,22.5 80.259,22.5 
			274.167,22.5 		"/>
	</g>
	<rect x="169.625" y="9.903" fill="none" width="22.292" height="11.443"/>
	<g enable-background="new    ">
		<path fill="#333333" d="M170.104,9.899h4.726v1.567h-1.591v4.438h-1.575v-4.438h-1.56V9.899z"/>
		<path fill="#333333" d="M178.471,9.907c1.655,0,2.998,1.352,2.998,3.007s-1.343,2.99-2.998,2.99s-2.99-1.335-2.99-2.99
			S176.816,9.907,178.471,9.907z M178.471,11.474c-0.784,0-1.424,0.64-1.424,1.432c0,0.783,0.64,1.431,1.424,1.431
			c0.791,0,1.431-0.647,1.431-1.431C179.902,12.114,179.262,11.474,178.471,11.474z"/>
	</g>
</g>
</svg>
