<?xml version="1.0" encoding="utf-8"?>
<!-- Generator: Adobe Illustrator 17.0.0, SVG Export Plug-In . SVG Version: 6.00 Build 0)  -->
<!DOCTYPE svg PUBLIC "-//W3C//DTD SVG 1.1//EN" "http://www.w3.org/Graphics/SVG/1.1/DTD/svg11.dtd">
<svg version="1.1" id="Layer_1" xmlns="http://www.w3.org/2000/svg" xmlns:xlink="http://www.w3.org/1999/xlink" x="0px" y="0px"
	 width="600px" height="162.393px" viewBox="0 0 600 162.393" enable-background="new 0 0 600 162.393" xml:space="preserve">
<polygon fill="#FFFFFF" points="333.632,3.562 276.412,91.736 390.852,91.736 "/>
<polygon fill="#FFFFFF" points="382.122,18.146 324.902,106.319 439.342,106.319 "/>
<polygon fill="#FFFFFF" points="280.095,3.562 222.875,91.736 337.315,91.736 "/>
<polygon fill="#FFFFFF" points="222.875,18.146 165.655,106.319 280.095,106.319 "/>
<g>
	<g>
		<g>
			<polygon fill="#FFFFFF" points="333.774,4.822 306.489,46.856 306.859,50.393 333.774,9.085 390.281,95.683 351,94.669 
				351,96.553 394.55,98.003 			"/>
			<g>
				<polygon fill="#FFFFFF" points="252.931,95.374 223.587,95.683 279.795,8.812 307,50.393 307,46.225 279.795,4.587 
					219.353,98.003 252.659,96.988 				"/>
			</g>
		</g>
		<polygon fill="#FFFFFF" points="175.428,94.505 219.724,26.247 242.965,62.051 244.451,60.058 219.724,21.986 172.655,94.517 		
			"/>
		<polygon fill="#FFFFFF" points="365.667,54.465 384.641,25.44 429.322,94.524 430.466,95.104 432.606,95.319 384.641,21.18 
			364.508,52.086 		"/>
	</g>
	<g>
		<path fill="#FFFFFF" d="M33.541,125.575c-1.726-1.726-4.176-2.728-7.015-2.728c-5.679,0-9.798,4.12-9.798,9.798
			c0,5.679,4.12,9.798,9.798,9.798c2.839,0,5.289-1.002,7.015-2.784l7.794,7.683c-3.786,3.786-9.018,6.18-14.809,6.18
			c-11.524,0-20.877-9.353-20.877-20.877s9.353-20.877,20.877-20.877c5.735,0,10.912,2.282,14.698,6.068L33.541,125.575z"/>
		<path fill="#FFFFFF" d="M68.833,111.769c11.524,0,20.877,9.408,20.877,20.932c0,11.524-9.354,20.821-20.877,20.821
			c-11.524,0-20.821-9.297-20.821-20.821C48.012,121.177,57.309,111.769,68.833,111.769z M68.833,122.681
			c-5.455,0-9.91,4.454-9.91,9.965c0,5.455,4.454,9.965,9.91,9.965c5.511,0,9.965-4.51,9.965-9.965
			C78.799,127.134,74.344,122.681,68.833,122.681z"/>
		<path fill="#FFFFFF" d="M97.333,153.523v-41.754h18.428c6.68,0,12.358,5.734,12.358,12.414c0,2.839-1.058,5.456-2.672,7.516
			c2.839,2.282,4.732,5.79,4.732,9.575c0,6.625-5.623,12.248-12.247,12.248H97.333z M113.588,128.08c2.005,0,3.62-1.614,3.62-3.618
			s-1.615-3.618-3.62-3.618H108.3v7.237H113.588z M115.648,144.504c2.005,0,3.618-1.614,3.618-3.618s-1.725-3.618-3.618-3.618H108.3
			v7.237H115.648z"/>
		<path fill="#FFFFFF" d="M136.744,153.523v-41.754h18.428c6.68,0,12.358,5.734,12.358,12.414c0,2.839-1.058,5.456-2.672,7.516
			c2.839,2.282,4.732,5.79,4.732,9.575c0,6.625-5.623,12.248-12.247,12.248H136.744z M153.001,128.08
			c2.003,0,3.618-1.614,3.618-3.618s-1.615-3.618-3.618-3.618h-5.289v7.237H153.001z M155.06,144.504
			c2.005,0,3.618-1.614,3.618-3.618s-1.725-3.618-3.618-3.618h-7.348v7.237H155.06z"/>
		<path fill="#FFFFFF" d="M176.156,111.769h10.968V142.5h15.031v11.023h-25.999V111.769z"/>
		<path fill="#FFFFFF" d="M210.001,111.769h25.943v9.075h-14.976v6.792h13.25v9.242h-13.25v7.683h14.976v8.963h-25.943V111.769z"/>
		<path fill="#FFFFFF" d="M259.156,124.574c0-1.726-1.447-3.173-3.173-3.173s-3.118,1.447-3.118,3.173
			c0,1.725,1.392,3.117,3.118,3.117c4.065,0,7.739,1.949,10.076,4.955c1.781,2.227,2.784,5.01,2.784,8.072
			c0,7.126-5.734,12.805-12.86,12.805s-12.86-5.623-12.86-12.972h9.742c0,1.781,1.392,3.173,3.118,3.173s3.173-1.392,3.173-3.117
			c0-1.726-1.447-3.173-3.173-3.173c-7.126,0-12.805-5.679-12.805-12.805c0-7.126,5.679-12.86,12.805-12.86
			s12.86,5.679,12.86,12.805H259.156z"/>
		<path fill="#FFFFFF" d="M283.447,133.373h8.227v0.376h-8.227V133.373z"/>
		<path fill="#FFFFFF" d="M313.037,125.105v0.396h-5.992v15.264h-0.398v-15.264h-5.972v-0.396H313.037z"/>
		<path fill="#FFFFFF" d="M322.407,125.105c4.343,0,7.852,3.487,7.852,7.83s-3.509,7.83-7.852,7.83s-7.83-3.487-7.83-7.83
			S318.064,125.105,322.407,125.105z M322.407,140.369c4.135,0,7.454-3.299,7.454-7.433c0-4.134-3.32-7.434-7.454-7.434
			c-4.134,0-7.433,3.3-7.433,7.434C314.974,137.07,318.274,140.369,322.407,140.369z"/>
		<path fill="#FFFFFF" d="M339.071,133.373h8.227v0.376h-8.227V133.373z"/>
		<path fill="#FFFFFF" d="M401.96,111.769l-19.039,19.095l22.602,22.658h-15.476l-14.865-14.809l-2.616,2.672v12.136h-10.968
			v-41.754h10.968v14.085l14.029-14.085H401.96z"/>
		<path fill="#FFFFFF" d="M410.518,111.769h25.943v9.075h-14.976v6.792h13.25v9.242h-13.25v7.683h14.976v8.963h-25.943V111.769z"/>
		<path fill="#FFFFFF" d="M444.308,153.523v-41.754h18.428c6.68,0,12.358,5.734,12.358,12.414c0,2.839-1.058,5.456-2.672,7.516
			c2.839,2.282,4.732,5.79,4.732,9.575c0,6.625-5.623,12.248-12.247,12.248H444.308z M460.565,128.08
			c2.003,0,3.618-1.614,3.618-3.618s-1.615-3.618-3.618-3.618h-5.289v7.237H460.565z M462.624,144.504
			c2.005,0,3.618-1.614,3.618-3.618s-1.725-3.618-3.618-3.618h-7.348v7.237H462.624z"/>
		<path fill="#FFFFFF" d="M480.937,153.523l19.485-41.754h4.955l19.652,41.754h-10.968l-2.561-5.456H494.41l-2.505,5.456H480.937z
			 M498.696,138.826h8.518l-4.231-9.186L498.696,138.826z"/>
		<path fill="#FFFFFF" d="M530.591,153.523v-41.754h18.428c6.68,0,12.358,5.734,12.358,12.414c0,2.839-1.058,5.456-2.672,7.516
			c2.839,2.282,4.732,5.79,4.732,9.575c0,6.625-5.623,12.248-12.247,12.248H530.591z M546.847,128.08c2.005,0,3.62-1.614,3.62-3.618
			s-1.615-3.618-3.62-3.618h-5.288v7.237H546.847z M548.907,144.504c2.005,0,3.619-1.614,3.619-3.618s-1.725-3.618-3.619-3.618
			h-7.348v7.237H548.907z"/>
		<path fill="#FFFFFF" d="M585.368,124.574c0-1.726-1.447-3.173-3.173-3.173c-1.726,0-3.118,1.447-3.118,3.173
			c0,1.725,1.392,3.117,3.118,3.117c4.065,0,7.739,1.949,10.076,4.955c1.781,2.227,2.784,5.01,2.784,8.072
			c0,7.126-5.734,12.805-12.86,12.805c-7.126,0-12.86-5.623-12.86-12.972h9.742c0,1.781,1.392,3.173,3.118,3.173
			c1.726,0,3.173-1.392,3.173-3.117c0-1.726-1.447-3.173-3.173-3.173c-7.126,0-12.805-5.679-12.805-12.805
			c0-7.126,5.679-12.86,12.805-12.86c7.126,0,12.86,5.679,12.86,12.805H585.368z"/>
	</g>
	<g>
		<polygon fill="none" stroke="#FFFFFF" stroke-miterlimit="10" points="596.5,98.15 4.5,98.15 4.5,95.15 172.904,95.15 
			596.5,95.15 		"/>
		<rect x="24.5" y="95.15" fill="#FFFFFF" stroke="#FFFFFF" stroke-miterlimit="10" width="68" height="3"/>
		<rect x="185.5" y="95.15" fill="#FFFFFF" stroke="#FFFFFF" stroke-miterlimit="10" width="68" height="3"/>
		<rect x="345.5" y="95.15" fill="#FFFFFF" stroke="#FFFFFF" stroke-miterlimit="10" width="68" height="3"/>
		<rect x="507.5" y="95.15" fill="#FFFFFF" stroke="#FFFFFF" stroke-miterlimit="10" width="68" height="3"/>
	</g>
</g>
</svg>
